<svg width="128" height="128" viewBox="0 0 128 128" fill="none" xmlns="http://www.w3.org/2000/svg">
<g clip-path="url(#clip0_36_61)">
<path d="M112.65 103.431L59.075 54.6563L61.5688 52.1563C63.5353 50.1816 64.7132 47.5568 64.8813 44.775C64.9801 44.7334 65.0761 44.6854 65.1688 44.6313L75.225 38.3438C75.8818 37.5432 76.2217 36.5294 76.1802 35.4947C76.1388 34.4601 75.7188 33.4767 75 32.7313L57.5063 15.1938C56.7636 14.4747 55.7821 14.0542 54.7492 14.0127C53.7163 13.9712 52.7042 14.3116 51.9063 14.9688L45.6313 25.0563L45.4938 25.3438C42.8063 25.5125 40.1688 26.6188 38.1313 28.6625L28.6188 38.2063C26.575 40.25 25.475 42.8938 25.3063 45.5875C25.2074 45.6291 25.1114 45.6771 25.0188 45.7313L14.9625 52.0188C14.3057 52.8193 13.9658 53.8332 14.0073 54.8678C14.0487 55.9025 14.4687 56.8859 15.1875 57.6313L32.6813 75.1688C33.4239 75.8879 34.4054 76.3083 35.4383 76.3498C36.4712 76.3913 37.4833 76.051 38.2813 75.3938L44.5563 65.3063L44.7 65.0188C47.3875 64.85 50.025 63.7438 52.0625 61.7L54.825 58.9313L103.469 112.656C104.881 114.213 107.05 114.463 108.3 113.213L113.219 108.281C114.463 107.031 114.213 104.85 112.663 103.438L112.65 103.431Z" fill="black"/>
</g>
<defs>
<clipPath id="clip0_36_61">
<rect width="100" height="100" fill="white" transform="translate(14 14)"/>
</clipPath>
</defs>
</svg>
