<svg width="500" height="500" viewBox="0 0 500 500" fill="none" xmlns="http://www.w3.org/2000/svg">
<g clip-path="url(#clip0_12_3)">
<path d="M385.95 185.51V420.04H114.95V185.51C115.561 149.976 130.105 116.104 155.45 91.1914C180.794 66.2784 214.911 52.3182 250.45 52.3182C285.989 52.3182 320.106 66.2784 345.45 91.1914C370.795 116.104 385.339 149.976 385.95 185.51Z" fill="#7D7E81"/>
<path d="M337.6 207.52C337.6 237.39 298.6 286.43 250.43 286.43C202.26 286.43 163.26 237.43 163.26 207.52C163.26 177.61 202.26 153.45 250.43 153.45C298.6 153.45 337.6 177.66 337.6 207.52Z" fill="#FABEAF"/>
<path d="M250.43 207.52C266.662 207.52 279.82 197.12 279.82 184.29C279.82 171.46 266.662 161.06 250.43 161.06C234.198 161.06 221.04 171.46 221.04 184.29C221.04 197.12 234.198 207.52 250.43 207.52Z" fill="#231F20"/>
<path d="M245.3 258.23H221.04V294.62H245.3V258.23Z" fill="white"/>
<path d="M279.83 258.23H255.57V294.62H279.83V258.23Z" fill="white"/>
<path d="M409.63 264.04C409.18 265.41 304.46 232.95 303.36 232.6C302.822 232.297 302.406 231.818 302.18 231.244C301.955 230.67 301.934 230.036 302.122 229.448C302.311 228.86 302.695 228.356 303.212 228.019C303.729 227.682 304.347 227.534 304.96 227.6C306.07 227.95 410.07 262.65 409.63 264.04Z" fill="#231F20"/>
<path d="M413.72 178.3C413.93 179.73 305.65 196.92 304.5 197.09C303.892 197.044 303.317 196.792 302.871 196.377C302.424 195.961 302.132 195.406 302.043 194.802C301.953 194.199 302.071 193.583 302.378 193.056C302.684 192.528 303.161 192.121 303.73 191.9C304.88 191.73 413.51 176.87 413.72 178.3Z" fill="#231F20"/>
<path d="M425.86 216.47C425.8 218.41 307.57 216.06 306.32 216.02C305.07 215.98 304.11 214.37 304.17 212.43C304.23 210.49 305.3 208.95 306.55 208.99C307.8 209.03 425.93 214.53 425.86 216.47Z" fill="#231F20"/>
<path d="M91.23 264.04C91.68 265.41 196.4 232.95 197.5 232.6C198.038 232.297 198.454 231.818 198.68 231.244C198.905 230.67 198.925 230.036 198.737 229.448C198.549 228.86 198.164 228.356 197.648 228.019C197.131 227.682 196.513 227.534 195.9 227.6C194.79 227.95 90.79 262.65 91.23 264.04Z" fill="#231F20"/>
<path d="M87.14 178.3C86.93 179.73 195.21 196.92 196.36 197.09C196.968 197.044 197.543 196.792 197.989 196.377C198.436 195.961 198.728 195.406 198.817 194.802C198.907 194.199 198.789 193.583 198.482 193.056C198.176 192.528 197.699 192.121 197.13 191.9C195.98 191.73 87.35 176.87 87.14 178.3Z" fill="#231F20"/>
<path d="M75 216.47C75.06 218.41 193.29 216.06 194.54 216.02C195.79 215.98 196.75 214.37 196.69 212.43C196.63 210.49 195.56 208.95 194.31 208.99C193.06 209.03 74.93 214.53 75 216.47Z" fill="#231F20"/>
<path d="M303.79 142.43C309.318 142.43 313.8 137.948 313.8 132.42C313.8 126.892 309.318 122.41 303.79 122.41C298.262 122.41 293.78 126.892 293.78 132.42C293.78 137.948 298.262 142.43 303.79 142.43Z" fill="#231F20"/>
<path d="M197.08 144.57C202.608 144.57 207.09 140.088 207.09 134.56C207.09 129.032 202.608 124.55 197.08 124.55C191.552 124.55 187.07 129.032 187.07 134.56C187.07 140.088 191.552 144.57 197.08 144.57Z" fill="#231F20"/>
</g>
<defs>
<clipPath id="clip0_12_3">
<rect width="350.87" height="370.08" fill="white" transform="translate(75 50)"/>
</clipPath>
</defs>
</svg>
