<svg width="500" height="500" viewBox="0 0 500 500" fill="none" xmlns="http://www.w3.org/2000/svg">
<g clip-path="url(#clip0_30_54)">
<path d="M385.95 185.51V420.04H114.95V185.51C115.56 149.976 130.105 116.104 155.45 91.1914C180.794 66.2784 214.911 52.3182 250.45 52.3182C285.989 52.3182 320.106 66.2784 345.45 91.1914C370.795 116.104 385.339 149.976 385.95 185.51Z" fill="#7D7E81"/>
<path d="M337.6 207.52C337.6 237.39 298.6 286.43 250.43 286.43C202.26 286.43 163.26 237.43 163.26 207.52C163.26 177.61 202.26 153.45 250.43 153.45C298.6 153.45 337.6 177.66 337.6 207.52Z" fill="#FABEAF"/>
<path d="M250.43 207.52C266.662 207.52 279.82 197.12 279.82 184.29C279.82 171.46 266.662 161.06 250.43 161.06C234.198 161.06 221.04 171.46 221.04 184.29C221.04 197.12 234.198 207.52 250.43 207.52Z" fill="#231F20"/>
<path d="M250.5 274C259.06 274 266 263.703 266 251C266 238.297 259.06 228 250.5 228C241.94 228 235 238.297 235 251C235 263.703 241.94 274 250.5 274Z" fill="#231F20"/>
<path d="M409.63 264.04C409.18 265.41 304.46 232.95 303.36 232.6C302.822 232.297 302.406 231.818 302.18 231.244C301.955 230.67 301.934 230.036 302.122 229.448C302.311 228.86 302.695 228.356 303.212 228.019C303.729 227.682 304.347 227.534 304.96 227.6C306.07 227.95 410.07 262.65 409.63 264.04Z" fill="#231F20"/>
<path d="M413.72 178.3C413.93 179.73 305.65 196.92 304.5 197.09C303.892 197.044 303.317 196.792 302.871 196.377C302.424 195.961 302.132 195.406 302.043 194.802C301.953 194.199 302.071 193.583 302.378 193.056C302.685 192.528 303.161 192.121 303.73 191.9C304.88 191.73 413.51 176.87 413.72 178.3Z" fill="#231F20"/>
<path d="M425.86 216.47C425.8 218.41 307.57 216.06 306.32 216.02C305.07 215.98 304.11 214.37 304.17 212.43C304.23 210.49 305.3 208.95 306.55 208.99C307.8 209.03 425.93 214.53 425.86 216.47Z" fill="#231F20"/>
<path d="M91.23 264.04C91.68 265.41 196.4 232.95 197.5 232.6C198.038 232.297 198.454 231.818 198.68 231.244C198.905 230.67 198.926 230.036 198.738 229.448C198.549 228.86 198.165 228.356 197.648 228.019C197.131 227.682 196.513 227.534 195.9 227.6C194.79 227.95 90.79 262.65 91.23 264.04Z" fill="#231F20"/>
<path d="M87.14 178.3C86.93 179.73 195.21 196.92 196.36 197.09C196.968 197.044 197.543 196.792 197.989 196.377C198.436 195.961 198.728 195.406 198.817 194.802C198.907 194.199 198.789 193.583 198.482 193.056C198.175 192.528 197.699 192.121 197.13 191.9C195.98 191.73 87.35 176.87 87.14 178.3Z" fill="#231F20"/>
<path d="M75 216.47C75.06 218.41 193.29 216.06 194.54 216.02C195.79 215.98 196.75 214.37 196.69 212.43C196.63 210.49 195.56 208.95 194.31 208.99C193.06 209.03 74.93 214.53 75 216.47Z" fill="#231F20"/>
<path d="M341.34 119.85C341.34 119.85 305.6 116.73 294.43 136.04C294.43 136.04 328.74 133.95 339.98 159.21C339.98 159.21 337.32 131.47 306.03 131.73C306.07 131.76 315.99 120.66 341.34 119.85Z" fill="#231F20"/>
<path d="M159.52 119.85C159.52 119.85 195.26 116.73 206.43 136.04C206.43 136.04 172.12 133.95 160.88 159.21C160.88 159.21 163.54 131.47 194.88 131.73C194.79 131.76 184.87 120.66 159.52 119.85Z" fill="#231F20"/>
</g>
<g clip-path="url(#clip1_30_54)">
<path d="M340.272 61.8994C336.869 59.7018 334.14 56.606 332.386 52.9542C330.606 49.2538 329.892 45.131 330.323 41.0475L337.174 41.7718C336.887 44.5597 337.373 47.3728 338.58 49.9025C339.786 52.4322 341.666 54.5806 344.014 56.1121L344.096 56.1655C346.447 57.6692 349.169 58.4907 351.959 58.5385C354.749 58.5863 357.497 57.8586 359.898 56.4364L363.381 62.3813C359.884 64.4313 355.89 65.4792 351.837 65.4103C347.785 65.3425 343.83 64.1581 340.408 61.9874L340.272 61.8994Z" fill="#F50F48"/>
<path d="M324.206 86.7951C327.629 89.0105 330.372 92.1316 332.129 95.8117C333.886 99.4918 334.588 103.587 334.158 107.642L327.316 106.924C327.601 104.138 327.114 101.327 325.908 98.7986C324.702 96.2706 322.824 94.1233 320.478 92.5918L320.396 92.5384C318.046 91.0361 315.326 90.2151 312.537 90.167C309.749 90.1189 307.002 90.8454 304.602 92.2658L301.12 86.3209C304.616 84.2707 308.61 83.2236 312.663 83.2945C316.716 83.3654 320.671 84.5516 324.094 86.7228L324.206 86.7951Z" fill="#F50F48"/>
<path d="M320.155 66.3906C317.94 69.8143 314.819 72.5568 311.139 74.3137C307.459 76.0706 303.364 76.773 299.308 76.3429L300.033 69.4912C302.82 69.7766 305.632 69.2891 308.161 68.0822C310.689 66.8752 312.837 64.9955 314.368 62.6489L314.421 62.5661C315.922 60.2168 316.742 57.4972 316.79 54.7098C316.837 51.9225 316.111 49.1765 314.691 46.7774L320.636 43.2948C322.686 46.7907 323.733 50.7836 323.662 54.8354C323.592 58.8872 322.407 62.8414 320.237 66.264L320.155 66.3906Z" fill="#F50F48"/>
<path d="M344.832 82.3156C347.047 78.8919 350.168 76.1493 353.848 74.3925C357.529 72.6356 361.624 71.9332 365.679 72.3633L364.955 79.2149C362.168 78.9297 359.357 79.4167 356.829 80.6227C354.301 81.8288 352.154 83.7073 350.622 86.0524L350.569 86.1352C349.067 88.4848 348.246 91.2051 348.197 93.9934C348.149 96.7818 348.876 99.5289 350.296 101.929L344.351 105.411C342.301 101.915 341.254 97.9207 341.325 93.8679C341.396 89.8151 342.582 85.8602 344.753 82.4373L344.832 82.3156Z" fill="#F50F48"/>
</g>
<defs>
<clipPath id="clip0_30_54">
<rect width="350.87" height="370.08" fill="white" transform="translate(75 50)"/>
</clipPath>
<clipPath id="clip1_30_54">
<rect width="59.8217" height="60.0883" fill="white" transform="translate(323.582 33) rotate(32.8361)"/>
</clipPath>
</defs>
</svg>
